# xmcd
#
# Track frame offsets:
#	150
#	10803
#	20052
#	31707
#	40789
#	49953
#	58936
#	67750
#	77118
#	86101
#	94079
#	101834
#	111010
#	120386
#	137524
#	150931
#	172205
#	181694
#	192924
#	205593
#	216354
#	228833
#	237643
#	246484
#	257923
#	267441
#	279610
#	289922
#	299565
#
# Disc length: 4136 seconds
#
# Revision: 1
# Processed by: cddbd v1.5.2PL0 Copyright (c) Steve Scherf et al.
# Submitted via: audiograbber 1.83.01
#
DISCID=aa10261d
DTITLE=Domino Fats - Out of New Orleans - CD7
DYEAR=1993
DGENRE=R&B
TTITLE0=Be my Guest 1959
TTITLE1=Tell me that you Love me 1960
TTITLE2=Before i grow to Old 1960
TTITLE3=Walking to New Orleans (Undubbed) 1992
TTITLE4=Walking to New Orleans (Master) 1960
TTITLE5=Don't come Knockin' (Undubbed) 1993
TTITLE6=Don't come Knockin' (Master) 1960
TTITLE7=La La 1962
TTITLE8=Put your Arms Around me Honey 1960
TTITLE9=Three Nights A Week 1960
TTITLE10=Shu Rah 1960 xxxx
TTITLE11=Rising Sun 1960
TTITLE12=My Girl Josephine 1960 xxxx
TTITLE13=You Always hurt the One you Love 1960
TTITLE14=Magic Isles 1960
TTITLE15=Natural Born Lover 1960
TTITLE16=Am i Blue 1961
TTITLE17=It's the Talk of the Town 1960
TTITLE18=It Keeps Rainin' 1961
TTITLE19=What a Price 1961
TTITLE20=Ain't that Just like a Woman 1961 xxxx
TTITLE21=Fell in Love on Monday (undubbed)1992
TTITLE22=Fell in Love on Monday (Master) 1961
TTITLE23=Trouble in Mind 1961
TTITLE24=Hold Hands  1961
TTITLE25=Bad Luck and Trouble 1961
TTITLE26=I've been Calling 1961
TTITLE27=I just Cry 1961
TTITLE28=Ain't gonna do it 1961 xxxx
EXTD=
EXTT0=
EXTT1=
EXTT2=
EXTT3=
EXTT4=
EXTT5=
EXTT6=
EXTT7=
EXTT8=
EXTT9=
EXTT10=
EXTT11=
EXTT12=
EXTT13=
EXTT14=
EXTT15=
EXTT16=
EXTT17=
EXTT18=
EXTT19=
EXTT20=
EXTT21=
EXTT22=
EXTT23=
EXTT24=
EXTT25=
EXTT26=
EXTT27=
EXTT28=
PLAYORDER=
